<svg width="20" height="20" viewBox="0 0 20 20" fill="none" xmlns="http://www.w3.org/2000/svg">
<path d="M16.6659 0.200195L2.79922 0.200195C1.36328 0.200195 0.199219 1.36426 0.199219 2.8002L0.199219 16.6669C0.199219 18.1028 1.36328 19.2669 2.79922 19.2669H16.6659C18.1018 19.2669 19.2659 18.1028 19.2659 16.6669V2.8002C19.2659 1.36426 18.1018 0.200195 16.6659 0.200195Z" fill="white"/>
<path d="M7.0669 5.3999C7.0669 5.7213 6.97159 6.03547 6.79303 6.3027C6.61448 6.56993 6.36069 6.77821 6.06376 6.90121C5.76683 7.0242 5.44009 7.05638 5.12487 6.99368C4.80965 6.93098 4.52011 6.77621 4.29285 6.54895C4.06559 6.32169 3.91082 6.03214 3.84812 5.71692C3.78542 5.40171 3.8176 5.07497 3.94059 4.77804C4.06358 4.48111 4.27186 4.22732 4.53909 4.04876C4.80632 3.87021 5.1205 3.7749 5.4419 3.7749C5.87287 3.7749 6.2862 3.94611 6.59094 4.25085C6.89569 4.5556 7.0669 4.96893 7.0669 5.3999ZM6.69856 8.10824L6.69856 15.2875C6.69885 15.3405 6.68866 15.3929 6.66859 15.442C6.64852 15.491 6.61896 15.5355 6.58161 15.5731C6.54426 15.6106 6.49986 15.6404 6.45095 15.6608C6.40205 15.6811 6.34961 15.6916 6.29665 15.6916H4.5839C4.53093 15.6917 4.47846 15.6814 4.42951 15.6612C4.38055 15.641 4.33606 15.6113 4.29861 15.5739C4.26116 15.5364 4.23148 15.4919 4.21128 15.443C4.19108 15.394 4.18075 15.3415 4.1809 15.2886L4.1809 8.10824C4.1809 8.00135 4.22335 7.89885 4.29893 7.82327C4.37451 7.74769 4.47701 7.70524 4.5839 7.70524H6.29665C6.40334 7.70552 6.50557 7.74811 6.58091 7.82365C6.65625 7.8992 6.69856 8.00154 6.69856 8.10824ZM15.6512 11.8457L15.6512 15.3211C15.6514 15.3698 15.6419 15.418 15.6233 15.463C15.6047 15.508 15.5775 15.5489 15.543 15.5834C15.5086 15.6178 15.4677 15.6451 15.4227 15.6637C15.3777 15.6822 15.3294 15.6917 15.2807 15.6916H13.4391C13.3904 15.6917 13.3421 15.6822 13.2971 15.6637C13.2521 15.6451 13.2112 15.6178 13.1768 15.5834C13.1423 15.5489 13.115 15.508 13.0965 15.463C13.0779 15.418 13.0684 15.3698 13.0686 15.3211L13.0686 11.953C13.0686 11.4503 13.2159 9.75165 11.7545 9.75165C10.6224 9.75165 10.3916 10.9141 10.3461 11.4362V15.3211C10.3462 15.4184 10.3079 15.5118 10.2396 15.5812C10.1712 15.6505 10.0784 15.6901 9.98106 15.6916H8.20223C8.15363 15.6916 8.1055 15.682 8.06061 15.6633C8.01572 15.6447 7.97495 15.6174 7.94063 15.583C7.90631 15.5486 7.87912 15.5077 7.86062 15.4628C7.84212 15.4178 7.83267 15.3697 7.83281 15.3211L7.83281 8.07682C7.83267 8.02822 7.84212 7.98006 7.86062 7.93512C7.87912 7.89017 7.90631 7.84932 7.94063 7.8149C7.97495 7.78048 8.01572 7.75318 8.06061 7.73454C8.1055 7.71591 8.15363 7.70632 8.20223 7.70632H9.98106C10.0793 7.70632 10.1736 7.74535 10.243 7.81484C10.3125 7.88432 10.3516 7.97856 10.3516 8.07682V8.70299C10.7719 8.07249 11.3948 7.58607 12.7241 7.58607C15.6686 7.58607 15.6512 10.3356 15.6512 11.8457Z" fill="#9B0405"/>
</svg>
