<svg width="19" height="19" viewBox="0 0 19 19" fill="none" xmlns="http://www.w3.org/2000/svg">
<path d="M14.4211 5.60782C15.0355 5.60782 15.5336 5.10973 15.5336 4.49532C15.5336 3.8809 15.0355 3.38281 14.4211 3.38281C13.8067 3.38281 13.3086 3.8809 13.3086 4.49532C13.3086 5.10973 13.8067 5.60782 14.4211 5.60782Z" fill="white"/>
<path d="M9.47104 4.68311C8.52948 4.68311 7.60907 4.96231 6.8262 5.48541C6.04332 6.00851 5.43315 6.75201 5.07283 7.62189C4.71251 8.49178 4.61824 9.44897 4.80192 10.3724C4.98561 11.2959 5.43901 12.1442 6.10479 12.8099C6.77057 13.4757 7.61883 13.9291 8.54229 14.1128C9.46576 14.2965 10.423 14.2022 11.2928 13.8419C12.1627 13.4816 12.9062 12.8714 13.4293 12.0885C13.9524 11.3057 14.2316 10.3852 14.2316 9.44369C14.2316 8.18111 13.7301 6.97023 12.8373 6.07745C11.9445 5.18467 10.7336 4.68311 9.47104 4.68311ZM9.47104 12.534C8.85984 12.534 8.26236 12.3527 7.75417 12.0132C7.24597 11.6736 6.84988 11.191 6.61598 10.6263C6.38209 10.0616 6.32089 9.44026 6.44013 8.84081C6.55937 8.24135 6.85369 7.69071 7.28587 7.25853C7.71806 6.82634 8.2687 6.53202 8.86815 6.41278C9.46761 6.29354 10.089 6.35474 10.6536 6.58864C11.2183 6.82254 11.701 7.21863 12.0405 7.72682C12.3801 8.23502 12.5613 8.83249 12.5613 9.44369C12.5613 10.2633 12.2357 11.0493 11.6562 11.6289C11.0767 12.2084 10.2906 12.534 9.47104 12.534Z" fill="white"/>
<path d="M9.47105 1.84462C11.9464 1.84462 12.24 1.85389 13.2173 1.8987C13.8051 1.90567 14.3873 2.0136 14.9385 2.21777C15.3385 2.37204 15.7017 2.60834 16.0048 2.91144C16.3079 3.21455 16.5442 3.57775 16.6985 3.97769C16.9026 4.52894 17.0106 5.11117 17.0175 5.69898C17.0623 6.67628 17.0716 6.96985 17.0716 9.44595C17.0716 11.922 17.0623 12.2141 17.0175 13.1914C17.0106 13.7792 16.9026 14.3614 16.6985 14.9127C16.5442 15.3126 16.3079 15.6758 16.0048 15.9789C15.7017 16.282 15.3385 16.5183 14.9385 16.6726C14.3873 16.8767 13.8051 16.9847 13.2173 16.9917C12.24 17.0365 11.9464 17.0457 9.47105 17.0457C6.99573 17.0457 6.70216 17.0365 5.72485 16.9917C5.13705 16.9847 4.55482 16.8767 4.00357 16.6726C3.60363 16.5183 3.24043 16.282 2.93732 15.9789C2.63422 15.6758 2.39792 15.3126 2.24365 14.9127C2.03948 14.3614 1.93155 13.7792 1.92457 13.1914C1.87977 12.2141 1.8705 11.9205 1.8705 9.44517C1.8705 6.96986 1.87977 6.67628 1.92457 5.69898C1.93155 5.11117 2.03948 4.52894 2.24365 3.97769C2.39792 3.57775 2.63422 3.21455 2.93732 2.91144C3.24043 2.60834 3.60363 2.37204 4.00357 2.21777C4.55482 2.0136 5.13705 1.90567 5.72485 1.8987C6.70216 1.85389 6.99573 1.84462 9.47105 1.84462ZM9.47105 0.174316C6.95324 0.174316 6.63726 0.185132 5.64837 0.229942C4.87949 0.245467 4.1188 0.391231 3.39864 0.661037C2.78269 0.899218 2.2233 1.26347 1.75632 1.73044C1.28935 2.19742 0.925097 2.75681 0.686915 3.37276C0.417024 4.09316 0.271259 4.85412 0.25582 5.62326C0.211011 6.61215 0.200195 6.92659 0.200195 9.44517C0.200195 11.9638 0.211011 12.279 0.25582 13.2679C0.271346 14.0367 0.41711 14.7974 0.686915 15.5176C0.925097 16.1335 1.28935 16.6929 1.75632 17.1599C2.2233 17.6269 2.78269 17.9911 3.39864 18.2293C4.11904 18.4992 4.88 18.645 5.64914 18.6604C6.63803 18.7052 6.95324 18.716 9.47105 18.716C11.9889 18.716 12.3048 18.7052 13.2937 18.6604C14.0629 18.645 14.8238 18.4992 15.5442 18.2293C16.1602 17.9911 16.7196 17.6269 17.1866 17.1599C17.6535 16.6929 18.0178 16.1335 18.256 15.5176C18.5256 14.7971 18.6711 14.0362 18.6863 13.2671C18.7311 12.2782 18.7419 11.9638 18.7419 9.44517C18.7419 6.92659 18.7311 6.61138 18.6863 5.62249C18.6708 4.85361 18.525 4.09292 18.2552 3.37276C18.017 2.75681 17.6528 2.19742 17.1858 1.73044C16.7188 1.26347 16.1594 0.899218 15.5435 0.661037C14.823 0.391409 14.0621 0.245905 13.293 0.230714C12.3041 0.18436 11.9896 0.174316 9.47105 0.174316Z" fill="white"/>
</svg>
